<svg xmlns="http://www.w3.org/2000/svg" width="320" height="240" viewBox="0 0 320 240">
<rect x="0" y="0" width="320" height="240" fill="#DDE6D3" />
<circle cx="160" cy="124" r="100" fill="#FFFFFF" stroke="#DCD8D0" stroke-width="2" />
<circle cx="160" cy="124" r="82" fill="#F6F3EE" />
<path d="M 164.0 103.7 Q 164.0 103.7 156.3 110.0 Q 148.6 116.3 135.5 121.4 Q 122.4 126.4 113.6 118.7 Q 104.8 110.9 99.3 103.5 Q 93.9 96.1 100.0 87.5 Q 106.1 79.0 120.6 80.7 Q 135.1 82.3 149.2 84.0 Q 163.4 85.6 163.7 94.6 Z" fill="#6EA64B" />
<path d="M 217.9 93.8 Q 217.9 93.8 223.4 102.5 Q 228.9 111.2 215.3 115.5 Q 201.8 119.9 189.0 119.0 Q 176.3 118.1 162.7 113.6 Q 149.0 109.2 155.6 100.6 Q 162.1 92.0 169.8 85.4 Q 177.4 78.7 192.5 77.8 Q 207.6 76.8 212.7 85.3 Z" fill="#86BD5A" />
<path d="M 150.6 155.8 Q 150.6 155.8 137.0 159.8 Q 123.4 163.7 112.1 158.9 Q 100.9 154.0 89.0 148.2 Q 77.2 142.3 85.4 134.4 Q 93.7 126.4 105.4 123.2 Q 117.2 120.0 132.6 119.7 Q 148.0 119.5 149.3 128.9 Q 150.5 138.4 150.6 147.1 Z" fill="#86BD5A" />
<path d="M 228.3 129.3 Q 228.3 129.3 226.7 138.4 Q 225.1 147.6 223.5 156.2 Q 221.8 164.9 207.2 167.3 Q 192.6 169.7 182.9 163.7 Q 173.2 157.8 163.2 150.7 Q 153.1 143.7 163.6 136.8 Q 174.0 129.9 186.4 127.9 Q 198.9 126.0 213.6 127.6 Z" fill="#6EA64B" />
<path d="M 191.3 120.0 Q 191.3 120.0 188.4 127.8 Q 185.4 135.6 172.7 140.8 Q 160.0 145.9 149.7 139.3 Q 139.3 132.7 129.6 126.4 Q 119.8 120.0 126.3 111.6 Q 132.8 103.3 146.4 102.5 Q 160.0 101.7 175.2 101.5 Q 190.5 101.2 190.9 110.6 Z" fill="#9CCB6B" />
<path d="M 190.0 162.7 Q 190.0 162.7 184.2 171.5 Q 178.5 180.4 163.9 177.2 Q 149.3 174.1 138.3 169.7 Q 127.3 165.4 123.9 156.3 Q 120.5 147.1 134.1 143.4 Q 147.7 139.7 160.7 136.2 Q 173.8 132.7 184.3 139.4 Q 194.8 146.0 192.4 154.4 Z" fill="#6EA64B" />
<rect x="140" y="106" width="14" height="14" rx="2" fill="#E2BC7E" transform="rotate(15 147.0 113.0)" />
<rect x="178" y="130" width="14" height="14" rx="2" fill="#E2BC7E" transform="rotate(-10 185.0 137.0)" />
<rect x="150" y="146" width="14" height="14" rx="2" fill="#D6AE6E" transform="rotate(30 157.0 153.0)" />
<circle cx="172" cy="108" r="4" fill="#C26A4E" />
<circle cx="134" cy="128" r="4" fill="#C26A4E" />
<circle cx="190" cy="156" r="4" fill="#C26A4E" />
<rect x="160" y="118" width="26" height="5" rx="0" fill="#FFFBEF" transform="rotate(25 173.0 120.5)" />
<rect x="124" y="116" width="22" height="5" rx="0" fill="#FFFBEF" transform="rotate(-15 135.0 118.5)" />
<path d="M 128 132 C 146 112 172 140 194 120" fill="none" stroke="#FFF6DA" stroke-width="3" stroke-linecap="round" stroke-linejoin="round" />
</svg>
