<svg xmlns="http://www.w3.org/2000/svg" width="320" height="240" viewBox="0 0 320 240">
<rect x="0" y="0" width="320" height="240" fill="#3A2E28" />
<ellipse cx="160" cy="132" rx="146" ry="102" fill="#8A5A36" />
<ellipse cx="160" cy="132" rx="146" ry="102" fill="none" stroke="#6E4527" stroke-width="3" />
<ellipse cx="160" cy="126" rx="122" ry="84" fill="#2A2522" />
<ellipse cx="160" cy="126" rx="122" ry="84" fill="none" stroke="#3A3430" stroke-width="4" />
<ellipse cx="156" cy="128" rx="60" ry="42" fill="#5E331E" />
<ellipse cx="152" cy="124" rx="50" ry="33" fill="#4A2314" />
<ellipse cx="142" cy="114" rx="21.0" ry="7.56" fill="#6E3B22" transform="rotate(-12 142 114)" />
<path d="M 182.7 118.0 Q 182.7 118.0 184.0 130.1 Q 185.3 142.2 174.0 146.5 Q 162.6 150.7 152.2 150.0 Q 141.8 149.3 130.1 145.9 Q 118.3 142.5 119.4 130.3 Q 120.5 118.0 121.6 107.3 Q 122.6 96.7 131.1 88.3 Q 139.6 79.9 150.5 84.5 Q 161.3 89.2 172.7 92.0 Q 184.0 94.7 183.3 106.4 Z" fill="#FFFFFF" />
<circle cx="150" cy="116" r="14" fill="#F4A81C" />
<circle cx="146" cy="112" r="4" fill="#F9C95A" />
<rect x="227.0" y="150" width="6.0" height="14.0" rx="2" fill="#7FA650" />
<circle cx="222.0" cy="148.0" r="9.0" fill="#3F7F35" />
<circle cx="238.0" cy="148.0" r="9.0" fill="#3F7F35" />
<circle cx="230" cy="141.0" r="10.0" fill="#4A8E3C" />
<ellipse cx="94" cy="160" rx="16" ry="9" fill="#E57A2E" transform="rotate(15 94 160)" />
<ellipse cx="90" cy="158" rx="6" ry="3" fill="#F09A52" transform="rotate(15 90 158)" />
<circle cx="92" cy="100" r="3.6" fill="#F5CC3A" />
<circle cx="100" cy="102" r="3.6" fill="#F5CC3A" />
<circle cx="85" cy="104" r="3.6" fill="#F5CC3A" />
<circle cx="95" cy="109" r="3.6" fill="#F5CC3A" />
<circle cx="89" cy="93" r="3.6" fill="#F5CC3A" />
<circle cx="101" cy="95" r="3.6" fill="#F5CC3A" />
<circle cx="82" cy="97" r="3.6" fill="#F5CC3A" />
</svg>
